PathFileType	4	(X/Y/Z)	Static_1_OpenSim.trc																																																																																																																						
DataRate	CameraRate	NumFrames	NumMarkers	Units	OrigDataRate	OrigDataStartFrame	OrigNumFrames																																																																																																																		
100	100	9	40	mm	100	1	619																																																																																																																		
Frame#	Time	R.ASIS			R.PSIS			S2			L.PSIS			L.ASIS			R.TH1			R.TH2			R.TH3			R.MKnee			R.Knee			R.SH1			R.SH2			R.SH3			R.SH4			R.Ankle			R.MAnkle			R.Heel			R.MT5			R.MT1			L.TH1			L.TH2			L.TH3			L.TH4			L.MKnee			L.Knee			L.SH1			L.SH2			L.SH3			L.Ankle			L.MAnkle			L.Heel			L.MT5			L.MT1			R.Acr			L.Acr			C7			T10			Clav			Sternum			R.Back		
		X1	Y1	Z1	X2	Y2	Z2	X3	Y3	Z3	X4	Y4	Z4	X5	Y5	Z5	X6	Y6	Z6	X7	Y7	Z7	X8	Y8	Z8	X9	Y9	Z9	X10	Y10	Z10	X11	Y11	Z11	X12	Y12	Z12	X13	Y13	Z13	X14	Y14	Z14	X15	Y15	Z15	X16	Y16	Z16	X17	Y17	Z17	X18	Y18	Z18	X19	Y19	Z19	X20	Y20	Z20	X21	Y21	Z21	X22	Y22	Z22	X23	Y23	Z23	X24	Y24	Z24	X25	Y25	Z25	X26	Y26	Z26	X27	Y27	Z27	X28	Y28	Z28	X29	Y29	Z29	X30	Y30	Z30	X31	Y31	Z31	X32	Y32	Z32	X33	Y33	Z33	X34	Y34	Z34	X35	Y35	Z35	X36	Y36	Z36	X37	Y37	Z37	X38	Y38	Z38	X39	Y39	Z39	X40	Y40	Z40
1	0	900.2551	1070.3569	-432.6288	691.6211	1079.3713	-531.9562	682.5518	1076.8042	-577.5426	695.8571	1082.105	-628.3456	894.2626	1067.9189	-724.5517	858.465	738.0649	-398.003	776.5002	738.0542	-393.8882	775.6907	628.5481	-402.7799	811.665	501.8105	-519.1292	793.9846	512.9395	-405.5734	789.9359	349.7543	-390.8169	792.6137	238.3541	-402.2386	707.8959	350.4546	-398.5217	711.7527	236.6828	-400.9222	725.4251	78.0036	-402.113	789.7813	92.9405	-480.4312	685.9056	37.1558	-474.5359	823.8042	37.8964	-336.0181	898.1339	39.5319	-404.3304	875.4013	766.0924	-752.0388	862.0264	658.4633	-749.8388	792.492	772.8096	-763.9272	782.3732	663.848	-753.7098	825.7886	500.9143	-642.5422	813.5023	518.5073	-750.6645	799.6628	392.6701	-781.9047	717.9784	399.6755	-771.566	711.5145	290.0993	-773.8071	752.4436	83.9614	-797.3362	798.4654	91.4484	-703.676	696.4286	43.7557	-734.8143	855.0526	33.1667	-833.3768	911.1629	45.165	-741.4984	810.3577	1488.3882	-426.0514	796.0397	1481.4183	-723.8517	756.8368	1504.6558	-575.4164	745.7891	1179.1663	-576.2335	901.9827	1421.9406	-578.7943	939.0995	1278.8428	-569.9664	682.7845	1401.1322	-495.1674
2	0.01	900.2301	1070.3745	-432.6122	691.649	1079.385	-532.0185	682.5815	1076.8237	-577.6107	695.9049	1082.1156	-628.392	894.3465	1067.9144	-724.5232	858.3868	738.0743	-397.9895	776.4026	738.0851	-393.8921	775.645	628.564	-402.7765	811.6322	501.8377	-519.1305	793.9219	512.9544	-405.5854	789.8922	349.8148	-390.813	792.6146	238.3507	-402.1575	707.8333	350.4861	-398.6327	711.727	236.6925	-400.9447	725.4228	78.0072	-402.1163	789.7679	92.9439	-480.4296	685.9105	37.1648	-474.5388	823.8029	37.908	-336.0155	898.1295	39.5427	-404.3268	875.4656	766.1522	-752.0175	862.0646	658.4557	-749.8049	792.5855	772.8225	-763.9457	782.4128	663.856	-753.7263	825.7629	500.9117	-642.5402	813.5149	518.507	-750.6578	799.6805	392.6745	-781.9046	717.9915	399.6799	-771.5886	711.527	290.1114	-773.8307	752.445	83.9595	-797.3251	798.4508	91.4623	-703.662	696.4448	43.7576	-734.8246	855.0401	33.1652	-833.3813	911.1534	45.1631	-741.4978	810.2577	1488.4347	-426.0817	796.0237	1481.3696	-723.8931	756.7974	1504.6536	-575.4808	745.8108	1179.1619	-576.2574	901.9697	1421.9722	-578.8088	939.1108	1278.8932	-569.9315	682.7426	1401.1191	-495.2436
3	0.02	900.2047	1070.3901	-432.5943	691.6753	1079.3983	-532.0804	682.6113	1076.8423	-577.6785	695.9533	1082.1257	-628.4385	894.4317	1067.9111	-724.4963	858.3097	738.0717	-397.9844	776.3108	738.112	-393.8985	775.6002	628.5789	-402.7746	811.6014	501.8622	-519.1318	793.861	512.9684	-405.5965	789.8493	349.8703	-390.8111	792.6133	238.3466	-402.0822	707.7714	350.5158	-398.743	711.7017	236.701	-400.9667	725.421	78.0102	-402.1193	789.7561	92.9466	-480.4278	685.9151	37.1731	-474.5406	823.8016	37.9179	-336.0131	898.1259	39.5525	-404.3231	875.5301	766.2064	-751.9959	862.1039	658.4508	-749.7717	792.6798	772.8362	-763.9634	782.4522	663.8648	-753.7402	825.7382	500.9095	-642.5362	813.5278	518.5074	-750.6497	799.7002	392.6788	-781.9033	718.0049	399.6845	-771.6098	711.5392	290.1236	-773.8525	752.4457	83.9577	-797.3145	798.4368	91.4743	-703.6492	696.4581	43.7596	-734.8331	855.0294	33.1636	-833.3854	911.1456	45.1609	-741.4973	810.1625	1488.4783	-426.112	796.0097	1481.319	-723.9368	756.7605	1504.6515	-575.5444	745.8319	1179.1571	-576.2822	901.9572	1422.0011	-578.8255	939.1195	1278.939	-569.899	682.7011	1401.1071	-495.3168
4	0.03	900.1793	1070.4023	-432.5748	691.6997	1079.411	-532.141	682.6412	1076.859	-577.7457	696.0027	1082.1351	-628.4852	894.5189	1067.9094	-724.4715	858.2347	738.0477	-397.9939	776.2289	738.1327	-393.9086	775.5572	628.5921	-402.7752	811.5741	501.8822	-519.1329	793.8036	512.981	-405.6065	789.8089	349.9172	-390.8123	792.6088	238.3422	-402.0187	707.712	350.5418	-398.8483	711.6771	236.7077	-400.9875	725.4202	78.0127	-402.1218	789.7476	92.9481	-480.4255	685.9193	37.1804	-474.5412	823.8004	37.9251	-336.0111	898.1238	39.5603	-404.319	875.5945	766.2511	-751.9736	862.1451	658.4495	-749.7393	792.7746	772.8511	-763.9799	782.4916	663.8745	-753.7497	825.7147	500.9085	-642.5284	813.5414	518.5085	-750.64	799.7232	392.6829	-781.9002	718.0187	399.6892	-771.6284	711.551	290.1355	-773.8715	752.4457	83.9558	-797.3048	798.4244	91.4832	-703.6387	696.4671	43.7617	-734.8388	855.0217	33.1612	-833.3889	911.1406	45.1582	-741.4975	810.0767	1488.5164	-426.1427	795.9982	1481.2649	-723.9857	756.7285	1504.6498	-575.6078	745.8521	1179.152	-576.3077	901.9458	1422.0248	-578.8475	939.1232	1278.9766	-569.8711	682.6607	1401.0973	-495.3856
5	0.04	900.155	1070.4108	-432.5542	691.7223	1079.4222	-532.1998	682.6713	1076.8738	-577.8113	696.0538	1082.144	-628.5314	894.608	1067.9084	-724.4485	858.1628	737.9984	-398.0202	776.1585	738.1471	-393.9222	775.517	628.6033	-402.7791	811.5515	501.8972	-519.1343	793.7517	512.9914	-405.6156	789.7733	349.9543	-390.8164	792.6019	238.3385	-401.9713	707.658	350.5632	-398.9411	711.6537	236.7129	-401.0062	725.4205	78.0151	-402.1233	789.7436	92.9485	-480.423	685.9229	37.1864	-474.5412	823.8003	37.929	-336.0096	898.1235	39.5651	-404.3145	875.6581	766.2851	-751.9507	862.1878	658.4503	-749.7078	792.8685	772.8668	-763.9946	782.5319	663.8846	-753.7548	825.6916	500.9101	-642.5155	813.5564	518.51	-750.6293	799.749	392.687	-781.895	718.0326	399.6942	-771.644	711.5624	290.1464	-773.8877	752.4454	83.9537	-797.2965	798.4146	91.489	-703.6309	696.4722	43.7635	-734.8413	855.0181	33.1574	-833.3914	911.1388	45.155	-741.4991	810.005	1488.5476	-426.1749	795.9882	1481.2057	-724.0443	756.7035	1504.6483	-575.6729	745.8715	1179.1466	-576.3331	901.9358	1422.0403	-578.8791	939.1207	1279.0043	-569.8494	682.623	1401.0912	-495.4502
6	0.05	900.1331	1070.4152	-432.5333	691.7443	1079.4313	-532.2557	682.7011	1076.8871	-577.8747	696.1072	1082.1526	-628.5762	894.6983	1067.9064	-724.4261	858.0953	737.9266	-398.0615	776.0998	738.1561	-393.9382	775.4799	628.612	-402.7864	811.5336	501.9074	-519.1362	793.7061	512.9994	-405.6246	789.7444	349.9837	-390.8226	792.594	238.3363	-401.9405	707.6112	350.5799	-399.0161	711.6321	236.7174	-401.0224	725.4219	78.0178	-402.1239	789.744	92.9475	-480.4203	685.9256	37.1908	-474.5416	823.8022	37.9302	-336.0083	898.1246	39.5666	-404.3102	875.7197	766.3075	-751.9273	862.2312	658.4513	-749.6769	792.9598	772.8827	-764.0073	782.5737	663.8948	-753.7564	825.669	500.9143	-642.4982	813.5726	518.5109	-750.6187	799.7753	392.6912	-781.8884	718.046	399.6997	-771.6567	711.5731	290.1555	-773.9017	752.4451	83.9514	-797.2899	798.4083	91.492	-703.6257	696.4742	43.7656	-734.8404	855.0186	33.1517	-833.3929	911.1399	45.1517	-741.5032	809.9523	1488.5714	-426.2106	795.9766	1481.1399	-724.1179	756.6865	1504.6469	-575.7433	745.8905	1179.1406	-576.3571	901.9274	1422.0454	-578.9246	939.1114	1279.0206	-569.8352	682.5898	1401.0898	-495.5113
7	0.06	900.1145	1070.4163	-432.5124	691.7666	1079.4381	-532.3078	682.7306	1076.8998	-577.9346	696.1631	1082.1611	-628.6187	894.7892	1067.902	-724.4034	858.034	737.8434	-398.1112	776.0522	738.1611	-393.9552	775.4462	628.618	-402.7963	811.5194	501.9136	-519.1387	793.6664	513.0051	-405.6337	789.7225	350.0084	-390.8292	792.5864	238.3364	-401.9237	707.572	350.5925	-399.0727	711.6124	236.7223	-401.0361	725.4241	78.0209	-402.1238	789.7476	92.9445	-480.4175	685.9277	37.1938	-474.5426	823.8061	37.9294	-336.0066	898.127	39.5649	-404.3062	875.779	766.3182	-751.9042	862.2739	658.4511	-749.6474	793.0472	772.8987	-764.0183	782.6176	663.9049	-753.756	825.6487	500.9191	-642.4804	813.5892	518.5113	-750.6091	799.8007	392.696	-781.8809	718.0575	399.7059	-771.6671	711.582	290.1626	-773.9143	752.445	83.9492	-797.2855	798.4055	91.4931	-703.6233	696.4739	43.7688	-734.8366	855.0231	33.1447	-833.3934	911.1426	45.1482	-741.5104	809.9222	1488.5883	-426.2528	795.96	1481.0659	-724.2106	756.6769	1504.6446	-575.8227	745.91	1179.1335	-576.3792	901.9205	1422.0395	-578.9873	939.0953	1279.0245	-569.8305	682.5633	1401.0946	-495.5704
8	0.07	900.0998	1070.4145	-432.4911	691.79	1079.4432	-532.3547	682.7604	1076.9126	-577.9895	696.2216	1082.1698	-628.6583	894.8798	1067.8954	-724.3803	857.981	737.7637	-398.1606	776.0141	738.1639	-393.9716	775.415	628.6216	-402.8076	811.5068	501.9172	-519.142	793.6314	513.009	-405.6425	789.7065	350.0295	-390.8353	792.5792	238.34	-401.917	707.5396	350.6016	-399.113	711.5945	236.7282	-401.0469	725.4269	78.0241	-402.1233	789.7521	92.9394	-480.4146	685.9293	37.1962	-474.5438	823.8115	37.9278	-336.0044	898.1301	39.5612	-404.3028	875.8359	766.3201	-751.8819	862.314	658.4499	-749.6197	793.1294	772.9155	-764.0278	782.6627	663.9153	-753.7549	825.6337	500.9216	-642.4672	813.604	518.5119	-750.6009	799.8254	392.7023	-781.8733	718.0651	399.7136	-771.6752	711.5882	290.1683	-773.9258	752.4446	83.9483	-797.2841	798.4052	91.4935	-703.6238	696.4717	43.7738	-734.8312	855.0308	33.1377	-833.3928	911.1452	45.1446	-741.52	809.9166	1488.6	-426.3056	795.9367	1480.9832	-724.3231	756.6738	1504.6416	-575.9146	745.9302	1179.1249	-576.4	901.9153	1422.0238	-579.0693	939.0734	1279.0151	-569.8375	682.5446	1401.1066	-495.6297
9	0.08	900.0893	1070.411	-432.4688	691.8149	1079.448	-532.3957	682.7907	1076.9262	-578.038	696.2821	1082.1785	-628.6947	894.9695	1067.8876	-724.3578	857.9368	737.6978	-398.2035	775.984	738.1663	-393.9861	775.3855	628.6233	-402.8195	811.493	501.9199	-519.1458	793.5986	513.0124	-405.6505	789.6947	350.0466	-390.8394	792.5715	238.3487	-401.9163	707.5121	350.6076	-399.141	711.5773	236.7356	-401.0541	725.4302	78.0266	-402.1226	789.7557	92.9329	-480.4119	685.9299	37.1991	-474.5442	823.8171	37.9264	-336.0013	898.1329	39.557	-404.2996	875.8901	766.318	-751.8611	862.3493	658.4491	-749.5948	793.2051	772.934	-764.036	782.707	663.9266	-753.7541	825.6251	500.92	-642.4624	813.6142	518.5149	-750.5943	799.8491	392.7116	-781.8666	718.0663	399.7233	-771.6813	711.5905	290.1734	-773.9362	752.4432	83.9496	-797.2856	798.4052	91.4941	-703.6274	696.4681	43.7806	-734.8261	855.04	33.1327	-833.3915	911.1453	45.1419	-741.5305	809.9348	1488.6101	-426.3731	795.9069	1480.892	-724.4537	756.6763	1504.6382	-576.0206	745.9514	1179.115	-576.4203	901.9115	1422.0008	-579.1709	939.0475	1278.9922	-569.8589	682.534	1401.1274	-495.6925
